# Blender v3.0.0 OBJ File: 'ShipMarker.blend'
# www.blender.org
mtllib ShipMarker.mtl
o Plane
v -0.288000 0.000000 0.400000
v -0.288000 0.000000 -0.400000
v -0.400000 0.000000 -0.288000
v -0.400000 0.000000 0.288000
v 0.400000 0.000000 0.288000
v 0.288000 0.000000 0.400000
v 0.288000 0.000000 -0.400000
v 0.400000 0.000000 -0.288000
vt 0.000000 0.000000
vt 0.000000 0.000000
vt 0.000000 0.000000
vt 0.000000 0.000000
vt 0.000000 0.000000
vt 0.000000 0.000000
vt 0.000000 0.000000
vt 0.000000 0.000000
vn 0.0000 1.0000 0.0000
usemtl Screen_MarkerShip
s off
f 4/1/1 1/2/1 8/3/1 7/4/1
f 3/5/1 6/6/1 5/7/1 2/8/1
