# Blender v3.0.0 OBJ File: 'ScreenFrame.blend'
# www.blender.org
mtllib ScreenFrame.mtl
o Circle_Circle.001
v 0.598079 0.000000 0.519509
v 0.538268 0.000000 -0.592388
v 0.555557 0.000000 -0.583147
v 0.570711 0.000000 -0.570711
v 0.583147 0.000000 -0.555557
v 0.592388 0.000000 -0.538268
v 0.598079 0.000000 -0.519509
v 0.600000 0.000000 -0.500000
v 0.500000 0.000000 -0.600000
v -0.592388 0.000000 -0.538268
v -0.583147 0.000000 -0.555557
v -0.570711 0.000000 -0.570711
v -0.555557 0.000000 -0.583147
v -0.538268 0.000000 -0.592388
v -0.519509 0.000000 -0.598079
v -0.500000 0.000000 -0.600000
v 0.592388 0.000000 0.538268
v 0.583147 0.000000 0.555557
v 0.570711 0.000000 0.570711
v 0.555557 0.000000 0.583147
v 0.538268 0.000000 0.592388
v 0.519509 0.000000 0.598079
v 0.500000 0.000000 0.600000
v -0.600000 0.000000 0.500000
v -0.598079 0.000000 0.519509
v -0.592388 0.000000 0.538268
v -0.583147 0.000000 0.555557
v -0.570711 0.000000 0.570711
v -0.555557 0.000000 0.583147
v -0.538268 0.000000 0.592388
v -0.519509 0.000000 0.598079
v -0.500000 0.000000 0.600000
v -0.500000 0.000000 0.500000
v -0.598079 0.000000 -0.519509
v -0.600000 0.000000 -0.500000
v -0.500000 0.000000 -0.500000
v 0.519509 0.000000 -0.598079
v 0.500000 0.000000 -0.500000
v 0.600000 0.000000 0.500000
v 0.500000 0.000000 0.500000
vt 0.000000 0.000000
vt 0.000000 0.000000
vt 0.000000 0.000000
vt 0.000000 0.000000
vt 0.000000 0.000000
vt 0.000000 0.000000
vt 0.000000 0.000000
vt 0.000000 0.000000
vt 0.000000 0.000000
vt 0.000000 0.000000
vt 0.000000 0.000000
vt 0.000000 0.000000
vt 0.000000 0.000000
vt 0.000000 0.000000
vt 0.000000 0.000000
vt 0.000000 0.000000
vt 0.000000 0.000000
vt 0.000000 0.000000
vt 0.000000 0.000000
vt 0.000000 0.000000
vt 0.000000 0.000000
vt 0.000000 0.000000
vt 0.000000 0.000000
vt 0.000000 0.000000
vt 0.000000 0.000000
vt 0.000000 0.000000
vt 0.000000 0.000000
vt 0.000000 0.000000
vt 0.000000 0.000000
vt 0.000000 0.000000
vt 0.000000 0.000000
vt 0.000000 0.000000
vt 0.000000 0.000000
vt 0.000000 0.000000
vt 0.000000 0.000000
vt 0.000000 0.000000
vt 0.000000 0.000000
vt 0.000000 0.000000
vt 0.000000 0.000000
vt 0.000000 0.000000
vn 0.0000 1.0000 0.0000
usemtl Iron
s off
f 9/1/1 38/2/1 8/3/1 7/4/1 6/5/1 5/6/1 4/7/1 3/8/1 2/9/1 37/10/1
f 33/11/1 24/12/1 25/13/1 26/14/1 27/15/1 28/16/1 29/17/1 30/18/1 31/19/1 32/20/1
f 39/21/1 40/22/1 23/23/1 22/24/1 21/25/1 20/26/1 19/27/1 18/28/1 17/29/1 1/30/1
f 40/22/1 33/11/1 32/20/1 23/23/1
f 15/31/1 14/32/1 13/33/1 12/34/1 11/35/1 10/36/1 34/37/1 35/38/1 36/39/1 16/40/1
f 39/21/1 8/3/1 38/2/1 40/22/1
f 9/1/1 16/40/1 36/39/1 38/2/1
f 36/39/1 35/38/1 24/12/1 33/11/1
