# Blender v3.0.0 OBJ File: 'Battleship.blend'
# www.blender.org
mtllib Battleship.mtl
o Cube_Cube.001
v 0.000000 -0.456235 -16.146805
v -3.802784 3.250932 -17.362837
v 0.000000 -0.456235 8.588110
v -3.802784 3.250932 9.100618
v -2.376740 3.250932 13.690647
v 3.802784 3.250932 -17.362837
v 2.376740 3.250932 13.690647
v 3.802784 3.250932 9.100618
v 0.000000 3.250932 19.241009
v 0.000000 0.840140 12.942711
vt 0.375000 0.000000
vt 0.375000 0.250000
vt 0.625000 0.250000
vt 0.625000 0.000000
vt 0.500000 0.375000
vt 0.625000 0.468750
vt 0.625000 0.375000
vt 0.375000 0.500000
vt 0.375000 0.750000
vt 0.625000 0.750000
vt 0.625000 0.500000
vt 0.625000 1.000000
vt 0.500000 0.312500
vt 0.625000 0.281250
vt 0.687500 0.500000
vt 0.843750 0.500000
vt 0.750000 0.500000
vt 0.625000 0.312500
vt 0.875000 0.750000
vt 0.875000 0.500000
vt 0.656250 0.500000
vt 0.375000 0.375000
vn -0.6980 -0.7161 0.0000
vn 0.6409 -0.7169 0.2744
vn 0.6980 -0.7161 0.0000
vn 0.0000 -0.3117 -0.9502
vn -0.6659 -0.7159 0.2099
vn 0.0000 1.0000 -0.0000
vn -0.6409 -0.7169 0.2744
vn 0.6659 -0.7159 0.2099
usemtl Iron
s off
f 1/1/1 3/2/1 4/3/1 2/4/1
f 10/5/2 7/6/2 9/7/2
f 3/8/3 1/9/3 6/10/3 8/11/3
f 1/9/4 2/12/4 6/10/4
f 3/2/5 10/13/5 5/14/5 4/3/5
f 7/15/6 5/16/6 9/17/6
f 10/13/7 9/7/7 5/18/7
f 8/11/6 6/10/6 2/19/6 4/20/6 5/16/6 7/21/6
f 3/22/8 8/11/8 7/6/8 10/5/8
