# Blender v3.0.0 OBJ File: 'Destroyer.blend'
# www.blender.org
mtllib destroyer.mtl
o Destroyer
v 0.000000 0.195204 -7.879466
v -2.840479 3.016022 -9.095495
v 0.000000 0.195204 4.147230
v -2.840479 3.016022 4.659737
v -1.775300 3.016022 7.177889
v 2.840479 3.016022 -9.095495
v 1.775300 3.016022 7.177889
v 2.840479 3.016022 4.659737
v 0.000000 3.016022 9.296237
v 2.840479 3.016022 -9.095495
v -2.840479 3.016022 -9.095495
v 0.000000 1.181628 6.429955
vt 0.375000 0.000000
vt 0.625000 0.000000
vt 0.625000 0.250000
vt 0.375000 0.250000
vt 0.500000 0.375000
vt 0.625000 0.375000
vt 0.625000 0.468750
vt 0.375000 0.500000
vt 0.625000 0.500000
vt 0.625000 0.750000
vt 0.375000 0.750000
vt 0.625000 0.750000
vt 0.625000 1.000000
vt 0.625000 0.281250
vt 0.500000 0.312500
vt 0.687500 0.500000
vt 0.750000 0.500000
vt 0.843750 0.500000
vt 0.625000 0.312500
vt 0.656250 0.500000
vt 0.875000 0.500000
vt 0.875000 0.750000
vt 0.375000 0.375000
vn 0.7046 0.7096 0.0000
vn -0.5410 0.7084 -0.4534
vn -0.7046 0.7096 0.0000
vn 0.0000 0.3959 0.9183
vn 0.6398 0.7124 -0.2883
vn 0.0000 -1.0000 0.0000
vn 0.5410 0.7084 -0.4534
vn -0.6398 0.7124 -0.2883
usemtl Iron
s off
f 1/1/1 2/2/1 4/3/1 3/4/1
f 12/5/2 9/6/2 7/7/2
f 3/8/3 8/9/3 6/10/3 1/11/3
f 1/11/4 10/12/4 11/13/4
f 3/4/5 4/3/5 5/14/5 12/15/5
f 7/16/6 9/17/6 5/18/6
f 12/15/7 5/19/7 9/6/7
f 8/9/6 7/20/6 5/18/6 4/21/6 2/22/6 6/10/6
f 3/23/8 12/5/8 7/7/8 8/9/8
